<?xml version="1.0" encoding="UTF-8"?><svg xmlns="http://www.w3.org/2000/svg" xmlns:xlink="http://www.w3.org/1999/xlink" viewBox="0 0 32 32" version="1.1"><path d="M11.469 5C7.918 5 5 7.914 5 11.469v9.062C5 24.082 7.914 27 11.469 27h9.062C24.082 27 27 24.086 27 20.531V11.47C27 7.918 24.086 5 20.531 5zm0 2h9.062A4.463 4.463 0 0 1 25 11.469v9.062A4.463 4.463 0 0 1 20.531 25H11.47A4.463 4.463 0 0 1 7 20.531V11.47A4.463 4.463 0 0 1 11.469 7zm10.437 2.188a.902.902 0 0 0-.906.906c0 .504.402.906.906.906a.902.902 0 0 0 .907-.906.902.902 0 0 0-.907-.906zM16 10c-3.3 0-6 2.7-6 6s2.7 6 6 6 6-2.7 6-6-2.7-6-6-6zm0 2c2.223 0 4 1.777 4 4s-1.777 4-4 4-4-1.777-4-4 1.777-4 4-4z" id="surface1"/><metadata><rdf:RDF xmlns:rdf="http://www.w3.org/1999/02/22-rdf-syntax-ns#" xmlns:rdfs="http://www.w3.org/2000/01/rdf-schema#" xmlns:dc="http://purl.org/dc/elements/1.1/"><rdf:Description about="https://iconscout.com/legal#licenses" dc:title="instagram" dc:description="instagram" dc:publisher="Iconscout" dc:date="2017-12-30" dc:format="image/svg+xml" dc:language="en"><dc:creator><rdf:Bag><rdf:li>Icons8</rdf:li></rdf:Bag></dc:creator></rdf:Description></rdf:RDF></metadata></svg>