<svg width="210" height="149" viewBox="0 0 210 149" fill="none" xmlns="http://www.w3.org/2000/svg">
<g clip-path="url(#clip0)">
<path d="M0.498001 99.601C1.17652 96.2494 2.25072 92.9902 3.69801 89.892C14.3086 65.1897 29.3339 42.6288 48.037 23.316C52.3657 18.6682 57.1719 14.4891 62.376 10.848C63.413 13.554 62.657 16.595 61.833 19.375C50.826 56.475 28.96 89.24 15.281 125.405" stroke="#231F20" stroke-width="1.011" stroke-miterlimit="10"/>
<path d="M6.493 101.245C6.14768 101.406 5.76463 101.47 5.38576 101.428C5.00689 101.386 4.64683 101.241 4.34502 101.008C17.8377 90.6746 31.6567 80.8033 45.802 71.394" stroke="#231F20" stroke-width="1.011" stroke-miterlimit="10"/>
<path d="M35.831 88.777L38.767 84.403C35.7226 89.0072 33.5006 94.1049 32.2 99.469C38.538 94.215 42.449 86.338 49.016 81.384C47.6947 84.9534 46.5227 88.5757 45.5 92.251C47.6705 90.5118 49.5738 88.4633 51.149 86.171C50.8074 87.6859 50.8126 89.2584 51.164 90.771L57.907 82.645C57.4143 84.0721 57.4956 85.6349 58.134 87.003C60.4865 85.6555 62.3076 83.544 63.295 81.019C60.7475 82.651 58.8643 85.1368 57.983 88.031C57.9206 88.1738 57.8876 88.3278 57.8861 88.4836C57.8845 88.6395 57.9145 88.794 57.974 88.938C58.246 89.406 58.939 89.277 59.431 89.063C61.9492 87.9687 64.1783 86.3034 65.942 84.199C65.197 85.3744 64.7469 86.7123 64.63 88.099C65.849 89.163 67.688 88.117 68.93 87.084L78.21 79.384L77.534 81.012" stroke="#231F20" stroke-width="1.011" stroke-miterlimit="10"/>
<path d="M116.816 35.195C124.199 24.9398 130.92 14.2237 136.937 3.112C128.712 46.038 97.232 81.104 87.024 123.588" stroke="#231F20" stroke-width="1.011" stroke-miterlimit="10"/>
<path d="M101.314 71.277C103.214 65.393 106.925 60.321 110.575 55.364C115.225 49.048 119.875 42.733 124.632 36.499C127.759 32.399 131.04 28.239 135.453 25.64C136.573 24.98 138.235 24.54 138.97 25.625C139.26 26.1737 139.359 26.8037 139.251 27.415C138.662 35.057 135.378 42.195 131.819 48.95C127.317 57.4982 122.285 65.7567 116.752 73.677C112.02 80.448 106.798 87.077 99.942 91.588C99.483 90.554 100.198 89.398 100.887 88.504C106.401 81.3401 112.456 74.6091 118.998 68.37C117.59 72.4611 116.648 76.6983 116.192 81.001C121.599 74.9666 126.294 68.3307 130.186 61.224C127.163 64.4399 125.421 68.6497 125.286 73.061C127.403 71.9031 129.251 70.3091 130.707 68.3843C132.163 66.4594 133.193 64.2476 133.731 61.895C131.741 63.5985 130.019 65.591 128.621 67.806C128.228 68.428 127.858 69.24 128.241 69.869C128.741 70.685 129.965 70.414 130.8 69.969C133.581 68.4648 135.842 66.1537 137.284 63.34C135.786 66.121 135.334 69.3465 136.01 72.432C137.356 71.7336 138.489 70.6854 139.289 69.3976C140.089 68.1097 140.528 66.6299 140.558 65.114C139.77 65.6919 139.153 66.4716 138.771 67.3708C138.389 68.2701 138.256 69.2557 138.387 70.224C150.935 51.1934 162.201 31.3477 172.11 10.819C167.85 14.311 165.115 19.331 162.592 24.272C158.822 31.6546 155.286 39.1546 151.985 46.772C147.974 56.03 144.262 65.697 144.002 75.811C143.97 77.049 144.389 78.711 145.602 78.68C146.137 78.5988 146.625 78.3263 146.975 77.913C150.571 74.4688 153.171 70.1183 154.502 65.32C154.397 66.583 153.674 67.705 153.413 68.944C153.152 70.183 153.652 71.807 154.887 71.963C155.641 71.9536 156.362 71.6554 156.903 71.13C158.803 69.69 160.871 66.991 159.255 65.23C157.386 66.4282 155.938 68.181 155.114 70.243C154.666 71.365 154.602 72.989 155.704 73.443C156.498 73.774 157.367 73.243 158.059 72.723C162.02 69.7714 165.808 66.5949 169.404 63.209C162.256 82.42 155.104 101.635 147.362 120.604C143.729 129.916 139.517 138.991 134.752 147.778C134.585 148.078 134.315 148.418 133.991 148.329C133.667 148.24 133.984 147.576 134.153 147.873" stroke="#231F20" stroke-width="1.011" stroke-miterlimit="10"/>
<path d="M41.728 132.739L58.421 126.047C69.321 121.678 80.221 117.309 91.259 113.327C129.316 99.606 168.902 90.5696 209.143 86.417" stroke="#231F20" stroke-width="2.022" stroke-miterlimit="10"/>
<path d="M172.994 52.026C173.268 52.0151 173.535 51.94 173.774 51.8069C174.014 51.6737 174.219 51.4861 174.372 51.2593C174.526 51.0324 174.624 50.7727 174.658 50.501C174.693 50.2292 174.664 49.9532 174.572 49.695C174.448 49.4522 174.267 49.2429 174.045 49.0846C173.823 48.9264 173.566 48.824 173.296 48.7859C173.026 48.7479 172.75 48.7753 172.493 48.866C172.236 48.9567 172.004 49.108 171.818 49.307C171.431 49.9124 171.246 50.6247 171.288 51.342" stroke="#231F20" stroke-width="1.011" stroke-miterlimit="10"/>
</g>
<defs>
<clipPath id="clip0">
<rect width="209.247" height="148.844" fill="white"/>
</clipPath>
</defs>
</svg>
